<svg width="48" height="48" viewBox="0 0 48 48" fill="none" xmlns="http://www.w3.org/2000/svg">
<path d="M24 4C20.0444 4 16.1776 5.17298 12.8886 7.37061C9.59962 9.56824 7.03617 12.6918 5.52242 16.3463C4.00867 20.0009 3.6126 24.0222 4.3843 27.9018C5.15601 31.7814 7.06082 35.3451 9.85787 38.1421C12.6549 40.9392 16.2186 42.844 20.0982 43.6157C23.9778 44.3874 27.9992 43.9913 31.6537 42.4776C35.3082 40.9638 38.4318 38.4004 40.6294 35.1114C42.827 31.8224 44 27.9556 44 24C44 21.3736 43.4827 18.7728 42.4776 16.3463C41.4725 13.9198 39.9993 11.715 38.1421 9.85786C36.285 8.00069 34.0802 6.5275 31.6537 5.52241C29.2272 4.51732 26.6264 4 24 4V4ZM24 40C20.8355 40 17.7421 39.0616 15.1109 37.3035C12.4797 35.5454 10.4289 33.0466 9.21794 30.1229C8.00693 27.1993 7.69008 23.9823 8.30745 20.8786C8.92481 17.7749 10.4487 14.9239 12.6863 12.6863C14.9239 10.4487 17.7749 8.9248 20.8786 8.30744C23.9823 7.69007 27.1993 8.00693 30.1229 9.21793C33.0466 10.4289 35.5454 12.4797 37.3035 15.1109C39.0616 17.7421 40 20.8355 40 24C40 28.2435 38.3143 32.3131 35.3137 35.3137C32.3131 38.3143 28.2435 40 24 40V40Z" fill="#333333"/>
<path d="M21.04 23.56C21.6924 23.4274 22.2763 23.0667 22.6868 22.5426C23.0973 22.0184 23.3076 21.3652 23.28 20.7C23.28 18.7 21.74 17.5 19.4 17.5H14V30.5H19.4C22 30.4 24 29.06 24 26.74C24.0188 26.3358 23.9566 25.9319 23.8173 25.5521C23.6779 25.1722 23.4642 24.824 23.1885 24.5278C22.9128 24.2316 22.5807 23.9934 22.2118 23.8273C21.8429 23.6611 21.4445 23.5702 21.04 23.56V23.56ZM16.52 19.34H18.82C20.02 19.34 20.72 19.98 20.72 21.04C20.72 22.1 19.96 22.82 18.22 22.82H16.52V19.34ZM18.52 28.48H16.52V24.6H18.98C20.48 24.6 21.32 25.36 21.32 26.6C21.32 27.84 20.48 28.48 18.44 28.48H18.52ZM29.5 20.6C28.8936 20.5495 28.2834 20.6307 27.7113 20.8382C27.1392 21.0456 26.6187 21.3743 26.1855 21.8018C25.7524 22.2292 25.4168 22.7453 25.2018 23.3146C24.9868 23.8839 24.8975 24.4929 24.94 25.1V26C24.8908 26.6244 24.9785 27.2521 25.1972 27.839C25.4158 28.426 25.7601 28.9581 26.2058 29.3981C26.6516 29.8382 27.1881 30.1755 27.7778 30.3866C28.3675 30.5976 28.9963 30.6773 29.62 30.62C30.6072 30.7373 31.6028 30.4827 32.4125 29.9059C33.2223 29.3291 33.7882 28.4714 34 27.5H31.58C31.4548 27.916 31.1834 28.2727 30.8158 28.5043C30.4482 28.7359 30.0093 28.8267 29.58 28.76C29.2742 28.7677 28.9704 28.7097 28.6889 28.59C28.4075 28.4703 28.155 28.2917 27.9484 28.0661C27.7418 27.8406 27.5859 27.5734 27.4913 27.2825C27.3968 26.9917 27.3656 26.6839 27.4 26.38V26.1H34V25.16C34.0471 24.5543 33.9635 23.9456 33.7549 23.375C33.5462 22.8045 33.2174 22.2854 32.7907 21.853C32.364 21.4206 31.8493 21.0849 31.2816 20.8688C30.7138 20.6526 30.1063 20.5609 29.5 20.6V20.6ZM31.5 24.6H27.46C27.4349 24.3226 27.4681 24.0431 27.5573 23.7793C27.6465 23.5154 27.7899 23.2731 27.9781 23.0679C28.1664 22.8627 28.3955 22.6991 28.6507 22.5875C28.9058 22.4759 29.1815 22.4189 29.46 22.42C29.7385 22.4189 30.0142 22.4759 30.2693 22.5875C30.5245 22.6991 30.7536 22.8627 30.9419 23.0679C31.1301 23.2731 31.2735 23.5154 31.3627 23.7793C31.4519 24.0431 31.4851 24.3226 31.46 24.6H31.5ZM26.5 18.4H32.5V19.4H26.5V18.4Z" fill="#333333"/>
</svg>
