<svg width="48" height="48" viewBox="0 0 48 48" fill="none" xmlns="http://www.w3.org/2000/svg">
<path d="M24 0C30.5208 0 31.3344 0.0239999 33.8928 0.144C36.4488 0.264 38.1888 0.6648 39.72 1.26C41.304 1.8696 42.6384 2.6952 43.9728 4.0272C45.1932 5.22695 46.1375 6.67821 46.74 8.28C47.3328 9.8088 47.736 11.5512 47.856 14.1072C47.9688 16.6656 48 17.4792 48 24C48 30.5208 47.976 31.3344 47.856 33.8928C47.736 36.4488 47.3328 38.1888 46.74 39.72C46.1392 41.3227 45.1947 42.7743 43.9728 43.9728C42.7727 45.1928 41.3215 46.137 39.72 46.74C38.1912 47.3328 36.4488 47.736 33.8928 47.856C31.3344 47.9688 30.5208 48 24 48C17.4792 48 16.6656 47.976 14.1072 47.856C11.5512 47.736 9.8112 47.3328 8.28 46.74C6.67758 46.1387 5.22607 45.1943 4.0272 43.9728C2.80658 42.7732 1.86224 41.3219 1.26 39.72C0.6648 38.1912 0.264 36.4488 0.144 33.8928C0.0311999 31.3344 0 30.5208 0 24C0 17.4792 0.0239999 16.6656 0.144 14.1072C0.264 11.5488 0.6648 9.8112 1.26 8.28C1.86057 6.67723 2.80513 5.22557 4.0272 4.0272C5.22641 2.80615 6.67783 1.86175 8.28 1.26C9.8112 0.6648 11.5488 0.264 14.1072 0.144C16.6656 0.0311999 17.4792 0 24 0ZM24 12C20.8174 12 17.7652 13.2643 15.5147 15.5147C13.2643 17.7652 12 20.8174 12 24C12 27.1826 13.2643 30.2348 15.5147 32.4853C17.7652 34.7357 20.8174 36 24 36C27.1826 36 30.2348 34.7357 32.4853 32.4853C34.7357 30.2348 36 27.1826 36 24C36 20.8174 34.7357 17.7652 32.4853 15.5147C30.2348 13.2643 27.1826 12 24 12ZM39.6 11.4C39.6 10.6044 39.2839 9.84129 38.7213 9.27868C38.1587 8.71607 37.3957 8.4 36.6 8.4C35.8044 8.4 35.0413 8.71607 34.4787 9.27868C33.9161 9.84129 33.6 10.6044 33.6 11.4C33.6 12.1957 33.9161 12.9587 34.4787 13.5213C35.0413 14.0839 35.8044 14.4 36.6 14.4C37.3957 14.4 38.1587 14.0839 38.7213 13.5213C39.2839 12.9587 39.6 12.1957 39.6 11.4ZM24 16.8C25.9096 16.8 27.7409 17.5586 29.0912 18.9088C30.4414 20.2591 31.2 22.0904 31.2 24C31.2 25.9096 30.4414 27.7409 29.0912 29.0912C27.7409 30.4414 25.9096 31.2 24 31.2C22.0904 31.2 20.2591 30.4414 18.9088 29.0912C17.5586 27.7409 16.8 25.9096 16.8 24C16.8 22.0904 17.5586 20.2591 18.9088 18.9088C20.2591 17.5586 22.0904 16.8 24 16.8Z" fill="#333333"/>
</svg>
