<svg width="499" height="246" viewBox="0 0 499 246" fill="none" xmlns="http://www.w3.org/2000/svg">
<path d="M38.6586 141.294L37.8663 141.294L38.2073 142.009L49.0258 164.703L1.56991 244.745L1.12229 245.5L2 245.5L151.207 245.5L151.498 245.5L151.641 245.247L197.304 164.976L197.442 164.733L197.308 164.489L151.776 81.2694L172.729 42.2729L225.605 42.2729L204.15 81.0294L204.016 81.2709L204.149 81.5128L215.725 102.536L215.868 102.795L216.163 102.795L263.112 102.795L264.004 102.795L263.539 102.034L250.834 81.2693L298.913 1.25758L299.368 0.500052L298.484 0.500052L151.207 0.500026L150.926 0.500026L150.78 0.739986L101.902 81.0115L101.746 81.2666L101.897 81.5242L150.625 164.723L128.416 201.179L76.181 201.179L96.9742 164.978L97.1224 164.719L96.9661 164.466L82.8172 141.531L82.6707 141.294L82.3917 141.294L38.6586 141.294ZM237.174 141.294L236.382 141.294L236.723 142.009L247.541 164.703L200.086 244.745L199.638 245.5L200.516 245.5L349.723 245.5L350.013 245.5L350.157 245.247L395.82 164.976L395.958 164.733L395.824 164.489L350.291 81.2695L371.245 42.2729L424.121 42.2729L402.665 81.0295L402.531 81.271L402.665 81.5128L414.241 102.536L414.384 102.795L414.679 102.795L461.628 102.795L462.52 102.795L462.054 102.034L449.35 81.2693L497.429 1.25762L497.884 0.500087L497 0.500087L349.723 0.500061L349.442 0.500061L349.296 0.74002L300.417 81.0116L300.262 81.2666L300.413 81.5243L349.14 164.724L326.932 201.179L274.697 201.179L295.49 164.978L295.638 164.719L295.482 164.466L281.333 141.531L281.186 141.294L280.907 141.294L237.174 141.294Z" fill="#1852FD" stroke="#1852FD"/>
</svg>
