<svg width="614" height="332" viewBox="0 0 614 332" fill="none" xmlns="http://www.w3.org/2000/svg">
<path d="M135.5 114L137 88.3966L176 110.397L176 137.397L139.155 158.848L185.384 185.538L224 165L223 68L305.217 23L432.763 96.6387L351 142.397L350 165.397L311 143.397L312 119.397L349.996 95.9336L303.211 68.922L266 91.5L263 187.5L183.217 234.31L54 159.707L135.5 114Z" fill="#1852FD"/>
<path d="M224 165L223 68L266 91.5L263 187.5L224 165Z" fill="#1048ED"/>
<path d="M303 211L304.5 185.397L343.5 207.397V234.397L306.655 255.848L352.884 282.538L391.5 262L390.5 165L472.717 120L600.263 193.639L518.5 239.397L517.5 262.397L478.5 240.397L479.5 216.397L517.496 192.934L470.711 165.922L433.5 188.5L430.5 284.5L350.717 331.31L221.5 256.707L303 211Z" fill="#1852FD"/>
<path d="M391.5 262L390.5 165L433.5 188.5L430.5 284.5L391.5 262Z" fill="#1048ED"/>
<path d="M107.5 115.604L26 161.31L155.217 235.914L150.5 223.5" stroke="#BEBEBE" stroke-width="6"/>
<path d="M443 110C443 110 473.169 110 492.5 110C516.224 110 553.25 110 553.25 110H614M443 318H614M254 34H76" stroke="#BEBEBE" stroke-width="2"/>
<path d="M570.531 91.3125H580.938V81.875H584.578V106H580.938V94.7344H570.531V106H566.891V81.875H570.531V91.3125Z" fill="#333333"/>
<path d="M598.133 102.338H591.678L589.998 106H587.547L595.008 89.9746L602.205 106H599.715L598.133 102.338ZM597.205 100.199L594.969 95.0723L592.625 100.199H597.205ZM612.42 93.0605H606.375V96.6836H612.244V98.8223H606.375V103.861H612.42V106H604.1V90.9219H612.42V93.0605Z" fill="#888888"/>
<path d="M548.531 293.469L545.578 295.219C545.026 294.26 544.5 293.635 544 293.344C543.479 293.01 542.807 292.844 541.984 292.844C540.974 292.844 540.135 293.13 539.469 293.703C538.802 294.266 538.469 294.974 538.469 295.828C538.469 297.005 539.344 297.953 541.094 298.672L543.5 299.656C545.458 300.448 546.891 301.417 547.797 302.562C548.703 303.698 549.156 305.094 549.156 306.75C549.156 308.969 548.417 310.802 546.938 312.25C545.448 313.708 543.599 314.438 541.391 314.438C539.297 314.438 537.568 313.818 536.203 312.578C534.859 311.339 534.021 309.594 533.688 307.344L537.375 306.531C537.542 307.948 537.833 308.927 538.25 309.469C539 310.51 540.094 311.031 541.531 311.031C542.667 311.031 543.609 310.651 544.359 309.891C545.109 309.13 545.484 308.167 545.484 307C545.484 306.531 545.417 306.104 545.281 305.719C545.156 305.323 544.953 304.964 544.672 304.641C544.401 304.307 544.047 304 543.609 303.719C543.172 303.427 542.651 303.151 542.047 302.891L539.719 301.922C536.417 300.526 534.766 298.484 534.766 295.797C534.766 293.984 535.458 292.469 536.844 291.25C538.229 290.021 539.953 289.406 542.016 289.406C544.797 289.406 546.969 290.76 548.531 293.469Z" fill="#333333"/>
<path d="M560.783 301.061H554.738V304.684H560.607V306.822H554.738V311.861H560.783V314H552.463V298.922H560.783V301.061ZM563.02 306.393C563.02 304.27 563.798 302.447 565.354 300.924C566.903 299.4 568.765 298.639 570.939 298.639C573.088 298.639 574.93 299.407 576.467 300.943C578.01 302.48 578.781 304.326 578.781 306.48C578.781 308.648 578.007 310.488 576.457 311.998C574.901 313.515 573.023 314.273 570.822 314.273C568.876 314.273 567.128 313.6 565.578 312.252C563.872 310.761 563.02 308.808 563.02 306.393ZM565.314 306.422C565.314 308.089 565.874 309.459 566.994 310.533C568.107 311.607 569.393 312.145 570.852 312.145C572.434 312.145 573.768 311.598 574.855 310.504C575.943 309.397 576.486 308.049 576.486 306.461C576.486 304.853 575.949 303.505 574.875 302.418C573.807 301.324 572.486 300.777 570.91 300.777C569.341 300.777 568.016 301.324 566.936 302.418C565.855 303.499 565.314 304.833 565.314 306.422ZM581.643 314V297.896L592.639 309.4V298.922H594.914V314.918L583.918 303.443V314H581.643ZM606.447 306.148H612.678V306.646C612.678 307.779 612.544 308.782 612.277 309.654C612.017 310.462 611.577 311.217 610.959 311.92C609.559 313.495 607.779 314.283 605.617 314.283C603.508 314.283 601.701 313.521 600.197 311.998C598.693 310.468 597.941 308.632 597.941 306.49C597.941 304.303 598.706 302.447 600.236 300.924C601.766 299.394 603.628 298.629 605.822 298.629C607.001 298.629 608.101 298.87 609.123 299.352C610.1 299.833 611.06 300.615 612.004 301.695L610.383 303.248C609.146 301.601 607.639 300.777 605.861 300.777C604.266 300.777 602.928 301.327 601.848 302.428C600.767 303.508 600.227 304.863 600.227 306.49C600.227 308.17 600.829 309.553 602.033 310.641C603.16 311.65 604.38 312.154 605.695 312.154C606.815 312.154 607.821 311.777 608.713 311.021C609.605 310.26 610.103 309.348 610.207 308.287H606.447V306.148Z" fill="#888888"/>
<path d="M92.5312 7.46875L89.5781 9.21875C89.026 8.26042 88.5 7.63542 88 7.34375C87.4792 7.01042 86.8073 6.84375 85.9844 6.84375C84.974 6.84375 84.1354 7.13021 83.4688 7.70312C82.8021 8.26562 82.4688 8.97396 82.4688 9.82812C82.4688 11.0052 83.3438 11.9531 85.0938 12.6719L87.5 13.6562C89.4583 14.4479 90.8906 15.4167 91.7969 16.5625C92.7031 17.6979 93.1562 19.0938 93.1562 20.75C93.1562 22.9688 92.4167 24.8021 90.9375 26.25C89.4479 27.7083 87.599 28.4375 85.3906 28.4375C83.2969 28.4375 81.5677 27.8177 80.2031 26.5781C78.8594 25.3385 78.0208 23.5938 77.6875 21.3438L81.375 20.5312C81.5417 21.9479 81.8333 22.9271 82.25 23.4688C83 24.5104 84.0938 25.0312 85.5312 25.0312C86.6667 25.0312 87.6094 24.651 88.3594 23.8906C89.1094 23.1302 89.4844 22.1667 89.4844 21C89.4844 20.5312 89.4167 20.1042 89.2812 19.7188C89.1562 19.3229 88.9531 18.9635 88.6719 18.6406C88.401 18.3073 88.0469 18 87.6094 17.7188C87.1719 17.4271 86.651 17.151 86.0469 16.8906L83.7188 15.9219C80.4167 14.526 78.7656 12.4844 78.7656 9.79688C78.7656 7.98438 79.4583 6.46875 80.8438 5.25C82.2292 4.02083 83.9531 3.40625 86.0156 3.40625C88.7969 3.40625 90.9688 4.76042 92.5312 7.46875Z" fill="#333333"/>
<path d="M95.7109 20.3926C95.7109 18.2702 96.4889 16.4473 98.0449 14.9238C99.5944 13.4004 101.456 12.6387 103.631 12.6387C105.779 12.6387 107.622 13.4069 109.158 14.9434C110.701 16.4798 111.473 18.3255 111.473 20.4805C111.473 22.6484 110.698 24.4876 109.148 25.998C107.592 27.515 105.714 28.2734 103.514 28.2734C101.567 28.2734 99.819 27.5996 98.2695 26.252C96.5638 24.7611 95.7109 22.8079 95.7109 20.3926ZM98.0059 20.4219C98.0059 22.0885 98.5658 23.459 99.6855 24.5332C100.799 25.6074 102.085 26.1445 103.543 26.1445C105.125 26.1445 106.46 25.5977 107.547 24.5039C108.634 23.3971 109.178 22.0495 109.178 20.4609C109.178 18.8529 108.641 17.5052 107.566 16.418C106.499 15.3242 105.177 14.7773 103.602 14.7773C102.033 14.7773 100.708 15.3242 99.627 16.418C98.5462 17.4987 98.0059 18.8333 98.0059 20.4219ZM114.334 28V11.8965L125.33 23.4004V12.9219H127.605V28.918L116.609 17.4434V28H114.334ZM139.139 20.1484H145.369V20.6465C145.369 21.7793 145.236 22.7819 144.969 23.6543C144.708 24.4616 144.269 25.2168 143.65 25.9199C142.251 27.4954 140.47 28.2832 138.309 28.2832C136.199 28.2832 134.393 27.5215 132.889 25.998C131.385 24.4681 130.633 22.6322 130.633 20.4902C130.633 18.3027 131.398 16.4473 132.928 14.9238C134.458 13.3939 136.32 12.6289 138.514 12.6289C139.692 12.6289 140.792 12.8698 141.814 13.3516C142.791 13.8333 143.751 14.6146 144.695 15.6953L143.074 17.248C141.837 15.6009 140.33 14.7773 138.553 14.7773C136.958 14.7773 135.62 15.3275 134.539 16.4277C133.458 17.5085 132.918 18.8626 132.918 20.4902C132.918 22.1699 133.52 23.5534 134.725 24.6406C135.851 25.6497 137.072 26.1543 138.387 26.1543C139.507 26.1543 140.512 25.7767 141.404 25.0215C142.296 24.2598 142.794 23.3483 142.898 22.2871H139.139V20.1484Z" fill="#888888"/>
<path d="M22.2905 168.324L20.2812 168.008C20.3505 167.591 20.3168 167.275 20.18 167.058C20.0479 166.823 19.7862 166.595 19.3951 166.371C18.9148 166.096 18.4171 165.948 17.902 165.926C17.3904 165.901 16.9868 166.008 16.6912 166.245C16.2838 166.572 16.3716 167.074 16.9546 167.749L17.7576 168.677C18.4144 169.429 18.7599 170.088 18.7941 170.653C18.8318 171.215 18.5641 171.726 17.9909 172.186C17.223 172.803 16.2369 173.112 15.0327 173.112C13.82 173.113 12.6888 172.813 11.6392 172.213C10.644 171.644 10.0367 171.002 9.81711 170.286C9.60745 169.576 9.81276 168.863 10.4331 168.147L12.4669 168.923C12.0558 169.363 11.8556 169.714 11.8662 169.978C11.8621 170.471 12.2017 170.913 12.8849 171.304C13.4246 171.613 14.0043 171.763 14.6239 171.756C15.2436 171.748 15.7553 171.582 16.1591 171.258C16.3213 171.127 16.437 170.99 16.506 170.846C16.5836 170.702 16.6114 170.547 16.5895 170.381C16.5761 170.215 16.5142 170.033 16.4036 169.836C16.2966 169.636 16.1446 169.418 15.9475 169.181L15.1763 168.279C14.0899 166.993 14.0118 165.977 14.9419 165.23C15.5692 164.726 16.423 164.493 17.5033 164.531C18.5872 164.565 19.6193 164.863 20.5997 165.424C21.9216 166.18 22.4852 167.146 22.2905 168.324Z" fill="#333333"/>
<path d="M28.1204 171.576L20.955 177.332L19.2246 176.342L26.39 170.586L23.7536 169.079L24.9379 168.127L31.9338 172.128L30.7494 173.079L28.1204 171.576Z" fill="#333333"/>
<path d="M32.5712 179.081L32.5627 183.969L30.4462 182.759L30.5888 178.141L30.2769 177.962L26.8591 180.708L25.1287 179.718L33.4785 173.011L35.5059 174.171C37.021 175.037 37.9078 175.829 38.1666 176.547C38.4478 177.343 38.2098 178.044 37.4527 178.652C36.8615 179.127 36.1204 179.403 35.2296 179.478C34.3388 179.554 33.4527 179.421 32.5712 179.081ZM31.3747 177.081L31.9243 177.395C33.5631 178.332 34.8385 178.434 35.7507 177.702C36.6051 177.015 36.2352 176.216 34.641 175.305L34.0246 174.952L31.3747 177.081Z" fill="#333333"/>
<path d="M47.786 182.821L43.189 180.193L41.1826 181.804L45.646 184.356L44.4617 185.308L39.9983 182.755L37.2079 184.997L41.8049 187.626L40.6206 188.577L34.2931 184.959L42.6429 178.252L48.9703 181.87L47.786 182.821Z" fill="#333333"/>
<path d="M51.657 192.099L46.748 189.292L43.4427 190.191L41.5786 189.125L56.1268 185.241L52.7259 195.499L50.8321 194.416L51.657 192.099ZM52.1358 190.745L53.2742 187.491L48.6527 188.753L52.1358 190.745Z" fill="#333333"/>
<path d="M53.7656 196.094L65.1563 190.263L62.603 197.726L73.1696 194.845L66.3611 203.296L64.5861 202.281L68.5197 197.6L59.7017 200.016L61.8338 193.769L55.5554 197.117L53.7656 196.094Z" fill="#333333"/>
<path d="M73.4906 207.373L81.8403 200.666L84.2466 202.042C85.4001 202.701 86.2282 203.289 86.7308 203.804C87.2864 204.345 87.6617 204.939 87.8566 205.586C88.2539 206.894 87.8127 208.062 86.5328 209.09C85.2493 210.121 83.5946 210.603 81.5687 210.535C80.5532 210.499 79.6288 210.35 78.7955 210.087C78.0067 209.849 77.0306 209.397 75.8671 208.732L73.4906 207.373ZM76.4053 207.411L77.1851 207.857C77.9624 208.302 78.668 208.623 79.3019 208.822C79.943 209.015 80.6085 209.121 81.2984 209.138C82.716 209.171 83.879 208.822 84.7876 208.092C85.7033 207.357 86.0251 206.519 85.7531 205.58C85.5039 204.739 84.6416 203.896 83.1662 203.053L82.3864 202.607L76.4053 207.411Z" fill="#333333"/>
<path d="M94.6215 207.975L86.2717 214.682L84.5414 213.692L92.8911 206.985L94.6215 207.975Z" fill="#333333"/>
<path d="M96.4695 215.62L96.461 220.508L94.3444 219.298L94.4871 214.68L94.1752 214.501L90.7574 217.247L89.027 216.257L97.3767 209.55L99.4042 210.709C100.919 211.576 101.806 212.368 102.065 213.086C102.346 213.881 102.108 214.583 101.351 215.191C100.76 215.666 100.019 215.942 99.1278 216.017C98.237 216.093 97.3509 215.96 96.4695 215.62ZM95.273 213.619L95.8225 213.934C97.4613 214.871 98.7368 214.973 99.6489 214.24C100.503 213.554 100.133 212.755 98.5392 211.843L97.9228 211.491L95.273 213.619Z" fill="#333333"/>
<path d="M111.684 219.36L107.087 216.731L105.081 218.343L109.544 220.895L108.36 221.847L103.897 219.294L101.106 221.536L105.703 224.165L104.519 225.116L98.1914 221.498L106.541 214.791L112.869 218.409L111.684 219.36Z" fill="#333333"/>
<path d="M123.166 224.914L121.673 226.113C121.283 225.052 120.552 224.215 119.483 223.604C118.305 222.93 117.004 222.61 115.58 222.644C114.155 222.672 112.999 223.042 112.113 223.754C111.237 224.458 110.903 225.284 111.113 226.232C111.323 227.18 112.017 227.991 113.196 228.665C113.805 229.013 114.394 229.251 114.964 229.378C115.274 229.456 115.616 229.518 115.991 229.564C116.371 229.613 116.789 229.649 117.244 229.671L115.725 230.892C114.327 230.653 113.084 230.222 111.995 229.599C110.356 228.662 109.373 227.527 109.048 226.196C108.734 224.862 109.17 223.718 110.357 222.765C111.42 221.911 112.851 221.425 114.649 221.308C116.858 221.168 118.905 221.638 120.792 222.716C121.821 223.305 122.613 224.038 123.166 224.914Z" fill="#333333"/>
<path d="M127.785 228.567L120.62 234.323L118.889 233.333L126.055 227.577L123.418 226.07L124.603 225.119L131.598 229.119L130.414 230.07L127.785 228.567Z" fill="#333333"/>
<path d="M134.874 230.992L126.524 237.699L124.793 236.709L133.143 230.002L134.874 230.992Z" fill="#333333"/>
<path d="M132.92 235.563C134.095 234.619 135.696 234.147 137.723 234.146C139.745 234.142 141.583 234.613 143.237 235.558C144.871 236.493 145.846 237.636 146.164 238.987C146.486 240.342 146.051 241.498 144.858 242.457C143.657 243.421 142.05 243.902 140.035 243.9C138.011 243.899 136.163 243.419 134.49 242.462C133.009 241.616 132.053 240.556 131.621 239.283C131.149 237.878 131.582 236.638 132.92 235.563ZM134.649 236.574C133.726 237.316 133.393 238.169 133.65 239.134C133.901 240.096 134.582 240.894 135.691 241.528C136.894 242.216 138.212 242.553 139.644 242.539C141.084 242.52 142.244 242.157 143.123 241.45C144.014 240.735 144.352 239.902 144.137 238.951C143.93 238 143.228 237.182 142.03 236.497C140.837 235.815 139.527 235.482 138.099 235.498C136.679 235.509 135.529 235.868 134.649 236.574Z" fill="#333333"/>
<path d="M142.87 247.046L151.787 239.883L153.779 249.782L159.582 245.121L161.312 246.11L152.454 253.226L150.446 243.34L144.6 248.035L142.87 247.046Z" fill="#333333"/>
</svg>
