<svg width="69" height="34" viewBox="0 0 69 34" fill="none" xmlns="http://www.w3.org/2000/svg">
<path d="M6.81375 18.9648H6.02106L6.36252 19.6801L7.68317 22.447L1.57005 32.7448L1.12172 33.5H2H21.5928H21.8835L22.0273 33.2475L28.0234 22.72L28.1616 22.4773L28.0274 22.2324L22.1618 11.5253L24.6785 6.84726H30.6249L28.165 11.285L28.031 11.5268L28.1645 11.7688L29.6846 14.526L29.8272 14.7846H30.1225H36.2874H37.1801L36.7138 14.0234L35.1833 11.5251L41.3607 1.25777L41.8166 0.5H40.9323H21.5928H21.3121L21.1659 0.73972L14.7476 11.2671L14.5919 11.5224L14.7432 11.7803L21.0102 22.4675L18.3563 26.8185H12.4918L14.8479 22.7219L14.9965 22.4634L14.8398 22.2098L12.9819 19.202L12.8353 18.9648H12.5565H6.81375ZM32.8815 18.9648H32.0888L32.4302 19.6801L33.7509 22.447L27.6378 32.7448L27.1894 33.5H28.0677H47.6605H47.9512L48.095 33.2475L54.0911 22.72L54.2293 22.4773L54.0951 22.2324L48.2295 11.5253L50.7462 6.84726H56.6926L54.2327 11.285L54.0987 11.5268L54.2322 11.7688L55.7523 14.526L55.8949 14.7846H56.1902H62.3551H63.2478L62.7815 14.0234L61.251 11.5251L67.4284 1.25777L67.8843 0.5H67H47.6605H47.3798L47.2336 0.73972L40.8153 11.2671L40.6596 11.5224L40.8109 11.7803L47.0779 22.4675L44.424 26.8185H38.5596L40.9156 22.7219L41.0642 22.4634L40.9075 22.2098L39.0496 19.202L38.903 18.9648H38.6242H32.8815Z" fill="#1852FD" stroke="#1852FD"/>
</svg>
