<svg width="131" height="32" viewBox="0 0 131 32" fill="none" xmlns="http://www.w3.org/2000/svg">
<path d="M18.72 8.56C17.8667 7.86667 17.0133 7.36 16.16 7.04C15.3067 6.69333 14.48 6.52 13.68 6.52C12.6667 6.52 11.84 6.76 11.2 7.24C10.56 7.72 10.24 8.34667 10.24 9.12C10.24 9.65333 10.4 10.0933 10.72 10.44C11.04 10.7867 11.4533 11.0933 11.96 11.36C12.4933 11.6 13.08 11.8133 13.72 12C14.3867 12.1867 15.04 12.3867 15.68 12.6C18.24 13.4533 20.1067 14.6 21.28 16.04C22.48 17.4533 23.08 19.3067 23.08 21.6C23.08 23.1467 22.8133 24.5467 22.28 25.8C21.7733 27.0533 21.0133 28.1333 20 29.04C19.0133 29.92 17.7867 30.6 16.32 31.08C14.88 31.5867 13.24 31.84 11.4 31.84C7.58667 31.84 4.05333 30.7067 0.8 28.44L4.16 22.12C5.33333 23.16 6.49333 23.9333 7.64 24.44C8.78667 24.9467 9.92 25.2 11.04 25.2C12.32 25.2 13.2667 24.9067 13.88 24.32C14.52 23.7333 14.84 23.0667 14.84 22.32C14.84 21.8667 14.76 21.48 14.6 21.16C14.44 20.8133 14.1733 20.5067 13.8 20.24C13.4267 19.9467 12.9333 19.68 12.32 19.44C11.7333 19.2 11.0133 18.9333 10.16 18.64C9.14667 18.32 8.14667 17.9733 7.16 17.6C6.2 17.2 5.33333 16.68 4.56 16.04C3.81333 15.4 3.2 14.6 2.72 13.64C2.26667 12.6533 2.04 11.4133 2.04 9.92C2.04 8.42667 2.28 7.08 2.76 5.88C3.26667 4.65333 3.96 3.61333 4.84 2.76C5.74667 1.88 6.84 1.2 8.12 0.719999C9.42667 0.239999 10.88 -1.43051e-06 12.48 -1.43051e-06C13.9733 -1.43051e-06 15.5333 0.213332 17.16 0.639997C18.7867 1.04 20.3467 1.64 21.84 2.44L18.72 8.56ZM31.81 16.52V31H24.57V16.52H22.17V10.48H24.57V4.32H31.81V10.48H35.93V16.52H31.81ZM34.6519 10.48H41.8919V13.84C42.6652 12.6133 43.6119 11.68 44.7319 11.04C45.8519 10.3733 47.1585 10.04 48.6519 10.04C48.8385 10.04 49.0385 10.04 49.2519 10.04C49.4919 10.04 49.7585 10.0667 50.0519 10.12V17.04C49.0919 16.56 48.0519 16.32 46.9319 16.32C45.2519 16.32 43.9852 16.8267 43.1319 17.84C42.3052 18.8267 41.8919 20.28 41.8919 22.2V31H34.6519V10.48ZM64.5191 17.76C64.2791 16.7467 63.7857 15.9333 63.0391 15.32C62.2924 14.7067 61.3857 14.4 60.3191 14.4C59.1991 14.4 58.2791 14.6933 57.5591 15.28C56.8657 15.8667 56.4257 16.6933 56.2391 17.76H64.5191ZM56.0391 21.96C56.0391 25.08 57.5057 26.64 60.4391 26.64C62.0124 26.64 63.1991 26 63.9991 24.72H70.9991C69.5857 29.4133 66.0524 31.76 60.3991 31.76C58.6657 31.76 57.0791 31.5067 55.6391 31C54.1991 30.4667 52.9591 29.72 51.9191 28.76C50.9057 27.8 50.1191 26.6533 49.5591 25.32C48.9991 23.9867 48.7191 22.4933 48.7191 20.84C48.7191 19.1333 48.9857 17.6 49.5191 16.24C50.0524 14.8533 50.8124 13.68 51.7991 12.72C52.7857 11.76 53.9724 11.0267 55.3591 10.52C56.7724 9.98667 58.3591 9.72 60.1191 9.72C61.8524 9.72 63.4124 9.98667 64.7991 10.52C66.1857 11.0267 67.3591 11.7733 68.3191 12.76C69.2791 13.7467 70.0124 14.96 70.5191 16.4C71.0257 17.8133 71.2791 19.4133 71.2791 21.2V21.96H56.0391ZM78.1375 20.68C78.1375 21.3467 78.2575 21.9733 78.4975 22.56C78.7375 23.12 79.0575 23.6133 79.4575 24.04C79.8842 24.4667 80.3775 24.8 80.9375 25.04C81.5242 25.28 82.1508 25.4 82.8175 25.4C83.4575 25.4 84.0575 25.28 84.6175 25.04C85.2042 24.8 85.6975 24.4667 86.0975 24.04C86.5242 23.6133 86.8575 23.12 87.0975 22.56C87.3642 22 87.4975 21.4 87.4975 20.76C87.4975 20.12 87.3642 19.52 87.0975 18.96C86.8575 18.3733 86.5242 17.8667 86.0975 17.44C85.6975 17.0133 85.2042 16.68 84.6175 16.44C84.0575 16.2 83.4575 16.08 82.8175 16.08C82.1508 16.08 81.5242 16.2 80.9375 16.44C80.3775 16.68 79.8842 17.0133 79.4575 17.44C79.0575 17.8667 78.7375 18.36 78.4975 18.92C78.2575 19.4533 78.1375 20.04 78.1375 20.68ZM87.2575 10.48H94.5375V31H87.2575V28.72C85.7108 30.6667 83.6175 31.64 80.9775 31.64C79.4842 31.64 78.1108 31.3733 76.8575 30.84C75.6042 30.28 74.5108 29.5067 73.5775 28.52C72.6442 27.5333 71.9108 26.3733 71.3775 25.04C70.8708 23.7067 70.6175 22.2533 70.6175 20.68C70.6175 19.2133 70.8708 17.8267 71.3775 16.52C71.8842 15.1867 72.5908 14.0267 73.4975 13.04C74.4042 12.0533 75.4842 11.28 76.7375 10.72C77.9908 10.1333 79.3775 9.84 80.8975 9.84C83.4575 9.84 85.5775 10.7333 87.2575 12.52V10.48ZM95.4644 10.48H102.704V13C104.678 11.1067 106.891 10.16 109.344 10.16C112.384 10.16 114.704 11.44 116.304 14C117.931 11.4133 120.251 10.12 123.264 10.12C124.224 10.12 125.131 10.2667 125.984 10.56C126.838 10.8267 127.571 11.2667 128.184 11.88C128.798 12.4667 129.278 13.24 129.624 14.2C129.998 15.16 130.184 16.32 130.184 17.68V31H122.944V20.88C122.944 19.84 122.864 18.9867 122.704 18.32C122.571 17.6533 122.358 17.1333 122.064 16.76C121.798 16.3867 121.478 16.1333 121.104 16C120.731 15.8667 120.331 15.8 119.904 15.8C117.584 15.8 116.424 17.4933 116.424 20.88V31H109.184V20.88C109.184 19.84 109.118 18.9867 108.984 18.32C108.851 17.6267 108.651 17.08 108.384 16.68C108.144 16.28 107.824 16.0133 107.424 15.88C107.024 15.72 106.558 15.64 106.024 15.64C105.571 15.64 105.144 15.7067 104.744 15.84C104.344 15.9733 103.984 16.24 103.664 16.64C103.371 17.0133 103.131 17.5467 102.944 18.24C102.784 18.9067 102.704 19.7867 102.704 20.88V31H95.4644V10.48Z" fill="#333333"/>
</svg>
