<svg width="1200" height="295" viewBox="0 0 1200 295" fill="none" xmlns="http://www.w3.org/2000/svg">
<path d="M166.202 79.309C158.288 72.8853 150.374 68.191 142.459 65.2261C134.545 62.0142 126.878 60.4083 119.458 60.4083C110.06 60.4083 102.393 62.6319 96.4568 67.0791C90.521 71.5264 87.5531 77.3325 87.5531 84.4975C87.5531 89.4389 89.037 93.5155 92.0049 96.7274C94.9728 99.9393 98.8064 102.781 103.506 105.251C108.452 107.475 113.893 109.451 119.829 111.181C126.012 112.91 132.072 114.763 138.007 116.74C161.751 124.646 179.063 135.27 189.946 148.612C201.075 161.706 206.64 178.878 206.64 200.126C206.64 214.456 204.167 227.427 199.22 239.039C194.521 250.651 187.472 260.657 178.074 269.058C168.923 277.211 157.546 283.511 143.943 287.959C130.588 292.653 115.377 295 98.3117 295C62.9442 295 30.1737 284.5 0 263.499L31.163 204.943C42.0453 214.579 52.8039 221.744 63.4389 226.438C74.0739 231.133 84.5852 233.48 94.9728 233.48C106.844 233.48 115.624 230.762 121.313 225.327C127.249 219.891 130.217 213.714 130.217 206.796C130.217 202.596 129.475 199.014 127.991 196.049C126.507 192.837 124.034 189.996 120.571 187.525C117.108 184.807 112.533 182.337 106.844 180.113C101.403 177.889 94.7255 175.419 86.8111 172.701C77.4127 169.736 68.1381 166.524 58.987 163.065C50.0833 159.359 42.0453 154.541 34.8728 148.612C27.9477 142.682 22.2593 135.27 17.8074 126.376C13.6029 117.234 11.5006 105.745 11.5006 91.9096C11.5006 78.0737 13.7265 65.5967 18.1784 54.4786C22.8776 43.1135 29.308 33.4778 37.4697 25.5716C45.8788 17.4183 56.0191 11.1181 67.8907 6.67086C80.0097 2.22362 93.4889 0 108.328 0C122.179 0 136.647 1.97655 151.734 5.92964C166.821 9.63568 181.289 15.1947 195.139 22.6068L166.202 79.309Z" fill="#333333"/>
<path d="M287.608 153.059V287.217H220.459V153.059H198.2V97.098H220.459V40.0251H287.608V97.098H325.82V153.059H287.608Z" fill="#333333"/>
<path d="M313.966 97.098H381.114V128.229C388.287 116.863 397.067 108.216 407.454 102.286C417.842 96.1097 429.961 93.0213 443.811 93.0213C445.543 93.0213 447.397 93.0213 449.376 93.0213C451.602 93.0213 454.075 93.2684 456.796 93.7626V157.877C447.892 153.43 438.246 151.206 427.859 151.206C412.277 151.206 400.529 155.9 392.615 165.289C384.948 174.43 381.114 187.896 381.114 205.685V287.217H313.966V97.098Z" fill="#333333"/>
<path d="M590.975 164.548C588.749 155.159 584.173 147.624 577.248 141.941C570.323 136.258 561.914 133.417 552.021 133.417C541.633 133.417 533.1 136.135 526.423 141.57C519.992 147.006 515.911 154.665 514.18 164.548H590.975ZM512.325 203.461C512.325 232.368 525.928 246.822 553.134 246.822C567.726 246.822 578.732 240.892 586.152 229.033H651.074C637.966 272.517 605.196 294.259 552.763 294.259C536.687 294.259 521.971 291.912 508.615 287.217C495.26 282.276 483.759 275.358 474.113 266.464C464.715 257.569 457.419 246.945 452.225 234.592C447.031 222.238 444.434 208.402 444.434 193.084C444.434 177.272 446.908 163.065 451.854 150.465C456.801 137.617 463.849 126.746 473 117.852C482.151 108.957 493.157 102.163 506.018 97.4686C519.127 92.5272 533.842 90.0565 550.166 90.0565C566.242 90.0565 580.711 92.5272 593.571 97.4686C606.432 102.163 617.315 109.081 626.218 118.222C635.122 127.364 641.923 138.606 646.623 151.947C651.322 165.042 653.671 179.866 653.671 196.42V203.461H512.325Z" fill="#333333"/>
<path d="M717.281 191.602C717.281 197.778 718.394 203.585 720.62 209.02C722.846 214.209 725.814 218.779 729.524 222.732C733.481 226.686 738.057 229.774 743.25 231.998C748.692 234.221 754.504 235.333 760.687 235.333C766.623 235.333 772.187 234.221 777.381 231.998C782.822 229.774 787.398 226.686 791.108 222.732C795.065 218.779 798.157 214.209 800.382 209.02C802.856 203.832 804.092 198.273 804.092 192.343C804.092 186.413 802.856 180.854 800.382 175.666C798.157 170.23 795.065 165.536 791.108 161.583C787.398 157.63 782.822 154.541 777.381 152.318C772.187 150.094 766.623 148.982 760.687 148.982C754.504 148.982 748.692 150.094 743.25 152.318C738.057 154.541 733.481 157.63 729.524 161.583C725.814 165.536 722.846 170.107 720.62 175.295C718.394 180.237 717.281 185.672 717.281 191.602ZM801.866 97.098H869.386V287.217H801.866V266.093C787.522 284.129 768.107 293.147 743.621 293.147C729.771 293.147 717.034 290.676 705.41 285.735C693.785 280.546 683.645 273.382 674.989 264.24C666.332 255.098 659.531 244.351 654.584 231.998C649.885 219.644 647.536 206.179 647.536 191.602C647.536 178.013 649.885 165.165 654.584 153.059C659.284 140.706 665.838 129.958 674.247 120.817C682.656 111.675 692.672 104.51 704.297 99.3216C715.921 93.8861 728.782 91.1683 742.879 91.1683C766.623 91.1683 786.285 99.4451 801.866 115.999V97.098Z" fill="#333333"/>
<path d="M877.983 97.098H945.131V120.446C963.433 102.904 983.961 94.1332 1006.72 94.1332C1034.91 94.1332 1056.43 105.992 1071.27 129.711C1086.35 105.745 1107.87 93.7626 1135.82 93.7626C1144.72 93.7626 1153.13 95.1214 1161.05 97.8392C1168.96 100.31 1175.76 104.387 1181.45 110.069C1187.14 115.505 1191.59 122.67 1194.81 131.564C1198.27 140.459 1200 151.206 1200 163.807V287.217H1132.85V193.455C1132.85 183.819 1132.11 175.913 1130.63 169.736C1129.39 163.559 1127.41 158.742 1124.69 155.283C1122.22 151.824 1119.25 149.477 1115.79 148.241C1112.32 147.006 1108.61 146.388 1104.66 146.388C1083.14 146.388 1072.38 162.077 1072.38 193.455V287.217H1005.23V193.455C1005.23 183.819 1004.61 175.913 1003.38 169.736C1002.14 163.312 1000.28 158.247 997.812 154.541C995.586 150.835 992.618 148.365 988.908 147.129C985.198 145.647 980.87 144.906 975.923 144.906C971.719 144.906 967.762 145.523 964.052 146.759C960.342 147.994 957.003 150.465 954.035 154.171C951.315 157.63 949.089 162.571 947.357 168.995C945.873 175.172 945.131 183.325 945.131 193.455V287.217H877.983V97.098Z" fill="#333333"/>
</svg>
